<svg xmlns="http://www.w3.org/2000/svg" xmlns:xlink="http://www.w3.org/1999/xlink" width="500" zoomAndPan="magnify" viewBox="0 0 375 149.999998" height="200" preserveAspectRatio="xMidYMid meet" version="1.2"><defs><clipPath id="756477952f"><path d="M 19 89 L 60 89 L 60 118.984375 L 19 118.984375 Z M 19 89 "/></clipPath><clipPath id="51e85be20b"><path d="M 9.886719 30.960938 L 105.765625 30.960938 L 105.765625 105 L 9.886719 105 Z M 9.886719 30.960938 "/></clipPath></defs><g id="3761624a81"><g clip-rule="nonzero" clip-path="url(#756477952f)"><path style=" stroke:none;fill-rule:nonzero;fill:#1c6434;fill-opacity:1;" d="M 19.222656 89.660156 C 23.9375 106.527344 39.457031 118.9375 57.824219 118.9375 C 58.300781 118.9375 58.777344 118.929688 59.25 118.914062 C 54.507812 116.917969 49.601562 114.066406 44.664062 110.09375 C 34.097656 101.585938 26.117188 94.347656 19.222656 89.660156 "/></g><path style=" stroke:none;fill-rule:nonzero;fill:#27963c;fill-opacity:1;" d="M 93.820312 96.496094 C 84.785156 100.203125 71.183594 98.855469 54.710938 90.714844 C 49.21875 88 38.132812 79.734375 17.972656 83.132812 C 25.683594 87.542969 34.539062 95.789062 46.964844 105.796875 C 47.546875 106.265625 48.128906 106.71875 48.710938 107.160156 C 63.613281 118.386719 85.144531 113.585938 93.589844 96.957031 C 93.667969 96.804688 93.742188 96.648438 93.820312 96.496094 "/><path style=" stroke:none;fill-rule:nonzero;fill:#80cc28;fill-opacity:1;" d="M 56.246094 87.585938 C 70.304688 93.605469 82.117188 95.039062 90.769531 92.933594 C 83.519531 92.808594 74.90625 90.859375 65.21875 86.734375 C 59.878906 84.460938 49.246094 77.5 31.1875 80.625 C 43.910156 80.652344 51.863281 85.707031 56.246094 87.585938 "/><g clip-rule="nonzero" clip-path="url(#51e85be20b)"><path style=" stroke:none;fill-rule:nonzero;fill:#f68712;fill-opacity:1;" d="M 57.824219 37.300781 C 83.152344 37.300781 103.6875 57.816406 103.6875 83.121094 C 103.6875 90.648438 101.867188 97.75 98.648438 104.019531 C 103.160156 96.714844 105.765625 88.109375 105.765625 78.894531 C 105.765625 52.441406 84.300781 30.996094 57.824219 30.996094 C 31.351562 30.996094 9.886719 52.441406 9.886719 78.894531 C 9.886719 88.109375 12.492188 96.714844 17.003906 104.019531 C 13.785156 97.75 11.964844 90.648438 11.964844 83.121094 C 11.964844 57.816406 32.5 37.300781 57.824219 37.300781 "/></g><path style=" stroke:none;fill-rule:nonzero;fill:#e7a811;fill-opacity:1;" d="M 88.980469 56.277344 C 87.109375 58.972656 85.125 59.84375 83.34375 60.855469 C 81.75 61.761719 80.316406 63.4375 81.398438 66.460938 C 88.761719 65.070312 88.980469 56.277344 88.980469 56.277344 "/><path style=" stroke:none;fill-rule:nonzero;fill:#e7a811;fill-opacity:1;" d="M 90.183594 62.394531 C 88.585938 65.097656 85.746094 66.496094 83.695312 67.664062 C 81.859375 68.707031 80.210938 70.632812 81.453125 74.117188 C 90.183594 73.3125 90.183594 62.394531 90.183594 62.394531 "/><path style=" stroke:none;fill-rule:nonzero;fill:#e7a811;fill-opacity:1;" d="M 84.527344 75.441406 C 82.25 76.710938 80.214844 79.097656 81.636719 83.339844 C 82.683594 80.726562 84.660156 79.242188 84.660156 79.242188 C 83.207031 81 81.386719 84.390625 82.121094 89.660156 C 82.257812 86.203125 83.046875 83.683594 83.460938 83.660156 C 86.488281 83.46875 88.238281 81.265625 89.429688 79.242188 C 91.429688 75.839844 92.675781 68.820312 92.675781 68.820312 C 92.675781 68.820312 89.394531 72.734375 84.527344 75.441406 "/><path style=" stroke:none;fill-rule:nonzero;fill:#e7a811;fill-opacity:1;" d="M 82.558594 56.046875 C 81.957031 53.742188 80.453125 49.941406 80.453125 49.941406 L 80.453125 61.902344 C 82.824219 60.417969 83.003906 57.761719 82.558594 56.046875 "/><path style=" stroke:none;fill-rule:nonzero;fill:#c3921c;fill-opacity:1;" d="M 71.921875 56.277344 C 73.792969 58.972656 75.777344 59.84375 77.558594 60.855469 C 79.152344 61.761719 80.585938 63.4375 79.503906 66.460938 C 72.140625 65.070312 71.921875 56.277344 71.921875 56.277344 "/><path style=" stroke:none;fill-rule:nonzero;fill:#c3921c;fill-opacity:1;" d="M 70.71875 62.394531 C 72.316406 65.097656 75.15625 66.496094 77.207031 67.664062 C 79.042969 68.707031 80.691406 70.632812 79.449219 74.117188 C 70.71875 73.3125 70.71875 62.394531 70.71875 62.394531 "/><path style=" stroke:none;fill-rule:nonzero;fill:#c3921c;fill-opacity:1;" d="M 78.34375 56.046875 C 78.945312 53.742188 80.453125 49.941406 80.453125 49.941406 L 80.453125 61.902344 C 78.078125 60.417969 77.898438 57.761719 78.34375 56.046875 "/><path style=" stroke:none;fill-rule:nonzero;fill:#c3921c;fill-opacity:1;" d="M 76.375 75.441406 C 78.652344 76.710938 80.6875 79.097656 79.265625 83.339844 C 78.21875 80.726562 76.242188 79.242188 76.242188 79.242188 C 77.695312 81 79.515625 84.390625 78.78125 89.660156 C 78.644531 86.203125 77.851562 83.683594 77.4375 83.660156 C 74.414062 83.46875 72.664062 81.265625 71.472656 79.242188 C 69.472656 75.839844 68.222656 68.820312 68.222656 68.820312 C 68.222656 68.820312 71.507812 72.734375 76.375 75.441406 "/><path style=" stroke:none;fill-rule:nonzero;fill:#e7a811;fill-opacity:1;" d="M 63.410156 56.253906 C 61.996094 58.292969 60.492188 58.953125 59.144531 59.71875 C 57.9375 60.40625 56.855469 61.671875 57.671875 63.960938 C 63.242188 62.90625 63.410156 56.253906 63.410156 56.253906 "/><path style=" stroke:none;fill-rule:nonzero;fill:#e7a811;fill-opacity:1;" d="M 64.320312 60.882812 C 63.113281 62.925781 60.960938 63.988281 59.410156 64.871094 C 58.023438 65.660156 56.773438 67.117188 57.714844 69.753906 C 64.320312 69.144531 64.320312 60.882812 64.320312 60.882812 "/><path style=" stroke:none;fill-rule:nonzero;fill:#e7a811;fill-opacity:1;" d="M 60.039062 70.753906 C 58.316406 71.714844 56.777344 73.519531 57.851562 76.730469 C 58.644531 74.753906 60.140625 73.628906 60.140625 73.628906 C 59.042969 74.957031 57.664062 77.527344 58.222656 81.511719 C 58.324219 78.898438 58.921875 76.992188 59.234375 76.972656 C 61.523438 76.828125 62.847656 75.160156 63.75 73.628906 C 65.261719 71.058594 66.207031 65.746094 66.207031 65.746094 C 66.207031 65.746094 63.722656 68.707031 60.039062 70.753906 "/><path style=" stroke:none;fill-rule:nonzero;fill:#e7a811;fill-opacity:1;" d="M 58.550781 56.082031 C 58.09375 54.339844 56.957031 51.460938 56.957031 51.460938 L 56.957031 60.511719 C 58.75 59.390625 58.886719 57.378906 58.550781 56.082031 "/><path style=" stroke:none;fill-rule:nonzero;fill:#c3921c;fill-opacity:1;" d="M 50.503906 56.253906 C 51.917969 58.292969 53.417969 58.953125 54.765625 59.71875 C 55.972656 60.40625 57.058594 61.671875 56.242188 63.960938 C 50.667969 62.90625 50.503906 56.253906 50.503906 56.253906 "/><path style=" stroke:none;fill-rule:nonzero;fill:#c3921c;fill-opacity:1;" d="M 49.59375 60.882812 C 50.800781 62.925781 52.949219 63.988281 54.5 64.871094 C 55.890625 65.660156 57.136719 67.117188 56.199219 69.753906 C 49.59375 69.144531 49.59375 60.882812 49.59375 60.882812 "/><path style=" stroke:none;fill-rule:nonzero;fill:#c3921c;fill-opacity:1;" d="M 55.363281 56.082031 C 55.816406 54.339844 56.957031 51.460938 56.957031 51.460938 L 56.957031 60.511719 C 55.160156 59.390625 55.023438 57.378906 55.363281 56.082031 "/><path style=" stroke:none;fill-rule:nonzero;fill:#c3921c;fill-opacity:1;" d="M 53.871094 70.753906 C 55.597656 71.714844 57.132812 73.519531 56.058594 76.730469 C 55.265625 74.753906 53.773438 73.628906 53.773438 73.628906 C 54.871094 74.957031 56.246094 77.527344 55.691406 81.511719 C 55.589844 78.898438 54.992188 76.992188 54.675781 76.972656 C 52.386719 76.828125 51.0625 75.160156 50.164062 73.628906 C 48.648438 71.058594 47.707031 65.746094 47.707031 65.746094 C 47.707031 65.746094 50.1875 68.707031 53.871094 70.753906 "/><path style=" stroke:none;fill-rule:nonzero;fill:#e7a811;fill-opacity:1;" d="M 42.222656 59.601562 C 41.136719 61.167969 39.984375 61.671875 38.949219 62.257812 C 38.023438 62.785156 37.191406 63.757812 37.820312 65.515625 C 42.097656 64.707031 42.222656 59.601562 42.222656 59.601562 "/><path style=" stroke:none;fill-rule:nonzero;fill:#e7a811;fill-opacity:1;" d="M 42.921875 63.152344 C 41.996094 64.722656 40.34375 65.535156 39.15625 66.214844 C 38.089844 66.820312 37.128906 67.9375 37.851562 69.960938 C 42.921875 69.492188 42.921875 63.152344 42.921875 63.152344 "/><path style=" stroke:none;fill-rule:nonzero;fill:#e7a811;fill-opacity:1;" d="M 39.636719 70.730469 C 38.316406 71.464844 37.132812 72.851562 37.960938 75.316406 C 38.566406 73.796875 39.714844 72.9375 39.714844 72.9375 C 38.871094 73.957031 37.816406 75.925781 38.242188 78.988281 C 38.320312 76.980469 38.78125 75.515625 39.019531 75.5 C 40.777344 75.390625 41.792969 74.109375 42.484375 72.9375 C 43.648438 70.960938 44.371094 66.886719 44.371094 66.886719 C 44.371094 66.886719 42.464844 69.160156 39.636719 70.730469 "/><path style=" stroke:none;fill-rule:nonzero;fill:#e7a811;fill-opacity:1;" d="M 38.496094 59.46875 C 38.144531 58.128906 37.269531 55.921875 37.269531 55.921875 L 37.269531 62.867188 C 38.648438 62.007812 38.753906 60.464844 38.496094 59.46875 "/><path style=" stroke:none;fill-rule:nonzero;fill:#c3921c;fill-opacity:1;" d="M 32.320312 59.601562 C 33.402344 61.167969 34.558594 61.671875 35.589844 62.257812 C 36.515625 62.785156 37.347656 63.757812 36.722656 65.515625 C 32.445312 64.707031 32.320312 59.601562 32.320312 59.601562 "/><path style=" stroke:none;fill-rule:nonzero;fill:#c3921c;fill-opacity:1;" d="M 31.621094 63.152344 C 32.546875 64.722656 34.195312 65.535156 35.386719 66.214844 C 36.453125 66.820312 37.410156 67.9375 36.6875 69.960938 C 31.621094 69.492188 31.621094 63.152344 31.621094 63.152344 "/><path style=" stroke:none;fill-rule:nonzero;fill:#c3921c;fill-opacity:1;" d="M 36.046875 59.46875 C 36.398438 58.128906 37.269531 55.921875 37.269531 55.921875 L 37.269531 62.867188 C 35.894531 62.007812 35.789062 60.464844 36.046875 59.46875 "/><path style=" stroke:none;fill-rule:nonzero;fill:#c3921c;fill-opacity:1;" d="M 34.90625 70.730469 C 36.226562 71.464844 37.40625 72.851562 36.582031 75.316406 C 35.976562 73.796875 34.828125 72.9375 34.828125 72.9375 C 35.671875 73.957031 36.726562 75.925781 36.300781 78.988281 C 36.222656 76.980469 35.761719 75.515625 35.523438 75.5 C 33.765625 75.390625 32.75 74.109375 32.058594 72.9375 C 30.894531 70.960938 30.171875 66.886719 30.171875 66.886719 C 30.171875 66.886719 32.078125 69.160156 34.90625 70.730469 "/><g style="fill:#1a6d12;fill-opacity:1;"><g transform="translate(120.559797, 83.557005)"><path style="stroke:none" d="M 23.59375 -1.09375 C 23.664062 -0.96875 23.703125 -0.828125 23.703125 -0.671875 C 23.703125 -0.515625 23.628906 -0.363281 23.484375 -0.21875 C 23.335938 -0.0703125 23.164062 0 22.96875 0 L 16.140625 0 C 15.453125 0 14.972656 -0.300781 14.703125 -0.90625 L 11.84375 -7.25 L 10.484375 -7.25 L 10.484375 -0.90625 C 10.484375 -0.65625 10.394531 -0.441406 10.21875 -0.265625 C 10.039062 -0.0859375 9.828125 0 9.578125 0 L 3.0625 0 C 2.820312 0 2.609375 -0.0859375 2.421875 -0.265625 C 2.242188 -0.441406 2.15625 -0.65625 2.15625 -0.90625 L 2.15625 -22.390625 C 2.15625 -22.640625 2.242188 -22.851562 2.421875 -23.03125 C 2.609375 -23.207031 2.820312 -23.296875 3.0625 -23.296875 L 12.90625 -23.296875 C 16.101562 -23.296875 18.597656 -22.578125 20.390625 -21.140625 C 22.191406 -19.710938 23.09375 -17.660156 23.09375 -14.984375 C 23.09375 -12.316406 21.894531 -10.21875 19.5 -8.6875 Z M 10.484375 -17.109375 L 10.484375 -13.578125 L 12.90625 -13.578125 C 13.394531 -13.578125 13.769531 -13.738281 14.03125 -14.0625 C 14.300781 -14.382812 14.4375 -14.789062 14.4375 -15.28125 C 14.4375 -15.769531 14.304688 -16.195312 14.046875 -16.5625 C 13.796875 -16.925781 13.414062 -17.109375 12.90625 -17.109375 Z M 10.484375 -17.109375 "/></g></g><g style="fill:#1a6d12;fill-opacity:1;"><g transform="translate(145.252019, 83.557005)"><path style="stroke:none" d="M 14.28125 -14.96875 C 14.519531 -15.257812 14.640625 -15.601562 14.640625 -16 C 14.640625 -16.40625 14.519531 -16.769531 14.28125 -17.09375 C 14.050781 -17.414062 13.71875 -17.578125 13.28125 -17.578125 L 10.484375 -17.578125 L 10.484375 -14.546875 L 13.28125 -14.546875 C 13.71875 -14.546875 14.050781 -14.6875 14.28125 -14.96875 Z M 10.484375 -8.984375 L 10.484375 -5.71875 L 13.578125 -5.71875 C 14.085938 -5.71875 14.46875 -5.890625 14.71875 -6.234375 C 14.976562 -6.578125 15.109375 -6.960938 15.109375 -7.390625 L 15.109375 -7.421875 C 15.109375 -7.835938 14.96875 -8.203125 14.6875 -8.515625 C 14.414062 -8.828125 14.046875 -8.984375 13.578125 -8.984375 Z M 14.4375 0 L 3.0625 0 C 2.820312 0 2.609375 -0.0859375 2.421875 -0.265625 C 2.242188 -0.441406 2.15625 -0.65625 2.15625 -0.90625 L 2.15625 -22.390625 C 2.15625 -22.640625 2.242188 -22.851562 2.421875 -23.03125 C 2.609375 -23.207031 2.820312 -23.296875 3.0625 -23.296875 L 14.109375 -23.296875 C 17.265625 -23.296875 19.585938 -22.722656 21.078125 -21.578125 C 22.578125 -20.441406 23.328125 -18.71875 23.328125 -16.40625 L 23.328125 -16.3125 C 23.328125 -15.351562 23.050781 -14.5 22.5 -13.75 C 21.945312 -13.007812 21.335938 -12.472656 20.671875 -12.140625 C 21.554688 -11.785156 22.300781 -11.160156 22.90625 -10.265625 C 23.519531 -9.367188 23.828125 -8.390625 23.828125 -7.328125 C 23.828125 -2.441406 20.695312 0 14.4375 0 Z M 14.4375 0 "/></g></g><g style="fill:#1a6d12;fill-opacity:1;"><g transform="translate(170.410123, 83.557005)"><path style="stroke:none" d="M 1.5625 -15.96875 C 1.5625 -18.238281 2.5 -20.082031 4.375 -21.5 C 6.25 -22.914062 8.710938 -23.625 11.765625 -23.625 C 14.816406 -23.625 17.3125 -22.878906 19.25 -21.390625 C 21.195312 -19.910156 22.171875 -18.359375 22.171875 -16.734375 C 22.171875 -16.535156 22.097656 -16.363281 21.953125 -16.21875 C 21.804688 -16.082031 21.644531 -16.015625 21.46875 -16.015625 L 14.8125 -16.015625 C 14.300781 -16.015625 13.832031 -16.203125 13.40625 -16.578125 C 12.988281 -16.953125 12.425781 -17.140625 11.71875 -17.140625 C 10.65625 -17.140625 10.125 -16.828125 10.125 -16.203125 C 10.125 -15.867188 10.382812 -15.59375 10.90625 -15.375 C 11.425781 -15.15625 12.394531 -14.957031 13.8125 -14.78125 C 17.113281 -14.351562 19.46875 -13.578125 20.875 -12.453125 C 22.289062 -11.335938 23 -9.640625 23 -7.359375 C 23 -5.085938 21.960938 -3.238281 19.890625 -1.8125 C 17.816406 -0.382812 15.101562 0.328125 11.75 0.328125 C 8.394531 0.328125 5.765625 -0.359375 3.859375 -1.734375 C 1.953125 -3.109375 1 -4.78125 1 -6.75 C 1 -6.957031 1.070312 -7.128906 1.21875 -7.265625 C 1.363281 -7.410156 1.535156 -7.484375 1.734375 -7.484375 L 8.046875 -7.484375 C 8.515625 -7.484375 9.03125 -7.257812 9.59375 -6.8125 C 10.164062 -6.375 10.953125 -6.15625 11.953125 -6.15625 C 13.609375 -6.15625 14.4375 -6.46875 14.4375 -7.09375 C 14.4375 -7.488281 14.132812 -7.789062 13.53125 -8 C 12.9375 -8.21875 11.8125 -8.4375 10.15625 -8.65625 C 4.425781 -9.40625 1.5625 -11.84375 1.5625 -15.96875 Z M 1.5625 -15.96875 "/></g></g><g style="fill:#1a6d12;fill-opacity:1;"><g transform="translate(194.403507, 83.557005)"><path style="stroke:none" d=""/></g></g><g style="fill:#1a6d12;fill-opacity:1;"><g transform="translate(204.05411, 83.557005)"><path style="stroke:none" d="M 10.15625 -14.4375 L 10.15625 -8.859375 C 10.15625 -7.054688 10.972656 -6.15625 12.609375 -6.15625 C 13.878906 -6.15625 14.710938 -6.753906 15.109375 -7.953125 C 15.222656 -8.328125 15.363281 -8.582031 15.53125 -8.71875 C 15.695312 -8.851562 15.96875 -8.921875 16.34375 -8.921875 L 23.125 -8.921875 C 23.332031 -8.921875 23.503906 -8.847656 23.640625 -8.703125 C 23.785156 -8.554688 23.859375 -8.382812 23.859375 -8.1875 C 23.859375 -6.257812 23.304688 -4.640625 22.203125 -3.328125 C 20.160156 -0.890625 16.972656 0.328125 12.640625 0.328125 C 9.253906 0.328125 6.550781 -0.414062 4.53125 -1.90625 C 2.507812 -3.40625 1.5 -5.707031 1.5 -8.8125 L 1.5 -14.484375 C 1.5 -17.515625 2.53125 -19.796875 4.59375 -21.328125 C 6.65625 -22.859375 9.335938 -23.625 12.640625 -23.625 C 16.972656 -23.625 20.160156 -22.40625 22.203125 -19.96875 C 23.304688 -18.65625 23.859375 -17.035156 23.859375 -15.109375 C 23.859375 -14.910156 23.785156 -14.738281 23.640625 -14.59375 C 23.503906 -14.445312 23.332031 -14.375 23.125 -14.375 L 16.34375 -14.375 C 15.988281 -14.375 15.726562 -14.441406 15.5625 -14.578125 C 15.394531 -14.710938 15.242188 -14.96875 15.109375 -15.34375 C 14.691406 -16.539062 13.859375 -17.140625 12.609375 -17.140625 C 10.972656 -17.140625 10.15625 -16.238281 10.15625 -14.4375 Z M 10.15625 -14.4375 "/></g></g><g style="fill:#1a6d12;fill-opacity:1;"><g transform="translate(228.912717, 83.557005)"><path style="stroke:none" d="M 10.15625 -6.484375 L 20.40625 -6.484375 C 20.644531 -6.484375 20.851562 -6.394531 21.03125 -6.21875 C 21.207031 -6.039062 21.296875 -5.832031 21.296875 -5.59375 L 21.296875 -0.90625 C 21.296875 -0.65625 21.207031 -0.441406 21.03125 -0.265625 C 20.851562 -0.0859375 20.644531 0 20.40625 0 L 3.0625 0 C 2.820312 0 2.609375 -0.0859375 2.421875 -0.265625 C 2.242188 -0.441406 2.15625 -0.65625 2.15625 -0.90625 L 2.15625 -22.390625 C 2.15625 -22.640625 2.242188 -22.851562 2.421875 -23.03125 C 2.609375 -23.207031 2.820312 -23.296875 3.0625 -23.296875 L 20.140625 -23.296875 C 20.378906 -23.296875 20.585938 -23.207031 20.765625 -23.03125 C 20.941406 -22.851562 21.03125 -22.640625 21.03125 -22.390625 L 21.03125 -17.703125 C 21.03125 -17.460938 20.941406 -17.253906 20.765625 -17.078125 C 20.585938 -16.898438 20.378906 -16.8125 20.140625 -16.8125 L 10.15625 -16.8125 L 10.15625 -14.703125 L 19.40625 -14.703125 C 19.644531 -14.703125 19.851562 -14.613281 20.03125 -14.4375 C 20.207031 -14.257812 20.296875 -14.050781 20.296875 -13.8125 L 20.296875 -9.484375 C 20.296875 -9.242188 20.207031 -9.035156 20.03125 -8.859375 C 19.851562 -8.679688 19.644531 -8.59375 19.40625 -8.59375 L 10.15625 -8.59375 Z M 10.15625 -6.484375 "/></g></g><g style="fill:#1a6d12;fill-opacity:1;"><g transform="translate(252.040879, 83.557005)"><path style="stroke:none" d="M 23.59375 -1.09375 C 23.664062 -0.96875 23.703125 -0.828125 23.703125 -0.671875 C 23.703125 -0.515625 23.628906 -0.363281 23.484375 -0.21875 C 23.335938 -0.0703125 23.164062 0 22.96875 0 L 16.140625 0 C 15.453125 0 14.972656 -0.300781 14.703125 -0.90625 L 11.84375 -7.25 L 10.484375 -7.25 L 10.484375 -0.90625 C 10.484375 -0.65625 10.394531 -0.441406 10.21875 -0.265625 C 10.039062 -0.0859375 9.828125 0 9.578125 0 L 3.0625 0 C 2.820312 0 2.609375 -0.0859375 2.421875 -0.265625 C 2.242188 -0.441406 2.15625 -0.65625 2.15625 -0.90625 L 2.15625 -22.390625 C 2.15625 -22.640625 2.242188 -22.851562 2.421875 -23.03125 C 2.609375 -23.207031 2.820312 -23.296875 3.0625 -23.296875 L 12.90625 -23.296875 C 16.101562 -23.296875 18.597656 -22.578125 20.390625 -21.140625 C 22.191406 -19.710938 23.09375 -17.660156 23.09375 -14.984375 C 23.09375 -12.316406 21.894531 -10.21875 19.5 -8.6875 Z M 10.484375 -17.109375 L 10.484375 -13.578125 L 12.90625 -13.578125 C 13.394531 -13.578125 13.769531 -13.738281 14.03125 -14.0625 C 14.300781 -14.382812 14.4375 -14.789062 14.4375 -15.28125 C 14.4375 -15.769531 14.304688 -16.195312 14.046875 -16.5625 C 13.796875 -16.925781 13.414062 -17.109375 12.90625 -17.109375 Z M 10.484375 -17.109375 "/></g></g><g style="fill:#1a6d12;fill-opacity:1;"><g transform="translate(276.7331, 83.557005)"><path style="stroke:none" d="M 10.15625 -6.484375 L 20.40625 -6.484375 C 20.644531 -6.484375 20.851562 -6.394531 21.03125 -6.21875 C 21.207031 -6.039062 21.296875 -5.832031 21.296875 -5.59375 L 21.296875 -0.90625 C 21.296875 -0.65625 21.207031 -0.441406 21.03125 -0.265625 C 20.851562 -0.0859375 20.644531 0 20.40625 0 L 3.0625 0 C 2.820312 0 2.609375 -0.0859375 2.421875 -0.265625 C 2.242188 -0.441406 2.15625 -0.65625 2.15625 -0.90625 L 2.15625 -22.390625 C 2.15625 -22.640625 2.242188 -22.851562 2.421875 -23.03125 C 2.609375 -23.207031 2.820312 -23.296875 3.0625 -23.296875 L 20.140625 -23.296875 C 20.378906 -23.296875 20.585938 -23.207031 20.765625 -23.03125 C 20.941406 -22.851562 21.03125 -22.640625 21.03125 -22.390625 L 21.03125 -17.703125 C 21.03125 -17.460938 20.941406 -17.253906 20.765625 -17.078125 C 20.585938 -16.898438 20.378906 -16.8125 20.140625 -16.8125 L 10.15625 -16.8125 L 10.15625 -14.703125 L 19.40625 -14.703125 C 19.644531 -14.703125 19.851562 -14.613281 20.03125 -14.4375 C 20.207031 -14.257812 20.296875 -14.050781 20.296875 -13.8125 L 20.296875 -9.484375 C 20.296875 -9.242188 20.207031 -9.035156 20.03125 -8.859375 C 19.851562 -8.679688 19.644531 -8.59375 19.40625 -8.59375 L 10.15625 -8.59375 Z M 10.15625 -6.484375 "/></g></g><g style="fill:#1a6d12;fill-opacity:1;"><g transform="translate(299.861262, 83.557005)"><path style="stroke:none" d="M 9.453125 -23.296875 L 16.671875 -23.296875 C 17.472656 -23.296875 17.972656 -22.929688 18.171875 -22.203125 L 25.59375 -0.96875 C 25.613281 -0.894531 25.625 -0.785156 25.625 -0.640625 C 25.625 -0.503906 25.550781 -0.363281 25.40625 -0.21875 C 25.257812 -0.0703125 25.085938 0 24.890625 0 L 18.734375 0 C 18.066406 0 17.632812 -0.273438 17.4375 -0.828125 L 16.640625 -3.03125 L 9.484375 -3.03125 L 8.6875 -0.828125 C 8.488281 -0.273438 8.054688 0 7.390625 0 L 1.234375 0 C 1.035156 0 0.863281 -0.0703125 0.71875 -0.21875 C 0.570312 -0.363281 0.5 -0.503906 0.5 -0.640625 C 0.5 -0.785156 0.507812 -0.894531 0.53125 -0.96875 L 7.953125 -22.203125 C 8.148438 -22.929688 8.648438 -23.296875 9.453125 -23.296875 Z M 11.1875 -9.515625 L 14.9375 -9.515625 L 13.046875 -15.703125 Z M 11.1875 -9.515625 "/></g></g><g style="fill:#1a6d12;fill-opacity:1;"><g transform="translate(325.984433, 83.557005)"><path style="stroke:none" d="M 9.84375 0 L 3.0625 0 C 2.820312 0 2.609375 -0.0859375 2.421875 -0.265625 C 2.242188 -0.441406 2.15625 -0.65625 2.15625 -0.90625 L 2.15625 -22.390625 C 2.15625 -22.640625 2.242188 -22.851562 2.421875 -23.03125 C 2.609375 -23.207031 2.820312 -23.296875 3.0625 -23.296875 L 9.84375 -23.296875 C 10.09375 -23.296875 10.304688 -23.207031 10.484375 -23.03125 C 10.660156 -22.851562 10.75 -22.640625 10.75 -22.390625 L 10.75 -0.90625 C 10.75 -0.65625 10.660156 -0.441406 10.484375 -0.265625 C 10.304688 -0.0859375 10.09375 0 9.84375 0 Z M 9.84375 0 "/></g></g><g style="fill:#1a6d12;fill-opacity:1;"><g transform="translate(338.896265, 83.557005)"><path style="stroke:none" d="M 1.5625 -15.96875 C 1.5625 -18.238281 2.5 -20.082031 4.375 -21.5 C 6.25 -22.914062 8.710938 -23.625 11.765625 -23.625 C 14.816406 -23.625 17.3125 -22.878906 19.25 -21.390625 C 21.195312 -19.910156 22.171875 -18.359375 22.171875 -16.734375 C 22.171875 -16.535156 22.097656 -16.363281 21.953125 -16.21875 C 21.804688 -16.082031 21.644531 -16.015625 21.46875 -16.015625 L 14.8125 -16.015625 C 14.300781 -16.015625 13.832031 -16.203125 13.40625 -16.578125 C 12.988281 -16.953125 12.425781 -17.140625 11.71875 -17.140625 C 10.65625 -17.140625 10.125 -16.828125 10.125 -16.203125 C 10.125 -15.867188 10.382812 -15.59375 10.90625 -15.375 C 11.425781 -15.15625 12.394531 -14.957031 13.8125 -14.78125 C 17.113281 -14.351562 19.46875 -13.578125 20.875 -12.453125 C 22.289062 -11.335938 23 -9.640625 23 -7.359375 C 23 -5.085938 21.960938 -3.238281 19.890625 -1.8125 C 17.816406 -0.382812 15.101562 0.328125 11.75 0.328125 C 8.394531 0.328125 5.765625 -0.359375 3.859375 -1.734375 C 1.953125 -3.109375 1 -4.78125 1 -6.75 C 1 -6.957031 1.070312 -7.128906 1.21875 -7.265625 C 1.363281 -7.410156 1.535156 -7.484375 1.734375 -7.484375 L 8.046875 -7.484375 C 8.515625 -7.484375 9.03125 -7.257812 9.59375 -6.8125 C 10.164062 -6.375 10.953125 -6.15625 11.953125 -6.15625 C 13.609375 -6.15625 14.4375 -6.46875 14.4375 -7.09375 C 14.4375 -7.488281 14.132812 -7.789062 13.53125 -8 C 12.9375 -8.21875 11.8125 -8.4375 10.15625 -8.65625 C 4.425781 -9.40625 1.5625 -11.84375 1.5625 -15.96875 Z M 1.5625 -15.96875 "/></g></g><g style="fill:#1a6d12;fill-opacity:1;"><g transform="translate(129.223284, 102.333944)"><path style="stroke:none" d="M 4.703125 -8.34375 C 5.316406 -8.34375 5.921875 -8.210938 6.515625 -7.953125 C 7.109375 -7.703125 7.613281 -7.367188 8.03125 -6.953125 L 6.8125 -5.5 C 6.550781 -5.832031 6.234375 -6.09375 5.859375 -6.28125 C 5.484375 -6.476562 5.109375 -6.578125 4.734375 -6.578125 C 4.078125 -6.578125 3.53125 -6.347656 3.09375 -5.890625 C 2.65625 -5.429688 2.4375 -4.863281 2.4375 -4.1875 C 2.4375 -3.488281 2.65625 -2.90625 3.09375 -2.4375 C 3.53125 -1.976562 4.078125 -1.75 4.734375 -1.75 C 5.078125 -1.75 5.4375 -1.832031 5.8125 -2 C 6.1875 -2.175781 6.519531 -2.414062 6.8125 -2.71875 L 8.046875 -1.421875 C 7.597656 -0.960938 7.066406 -0.59375 6.453125 -0.3125 C 5.847656 -0.0390625 5.238281 0.09375 4.625 0.09375 C 3.382812 0.09375 2.347656 -0.3125 1.515625 -1.125 C 0.691406 -1.9375 0.28125 -2.945312 0.28125 -4.15625 C 0.28125 -5.34375 0.703125 -6.335938 1.546875 -7.140625 C 2.390625 -7.941406 3.441406 -8.34375 4.703125 -8.34375 Z M 4.703125 -8.34375 "/></g></g><g style="fill:#1a6d12;fill-opacity:1;"><g transform="translate(140.504826, 102.333944)"><path style="stroke:none" d="M 4.75 -8.34375 C 6.03125 -8.34375 7.09375 -7.941406 7.9375 -7.140625 C 8.789062 -6.335938 9.21875 -5.335938 9.21875 -4.140625 C 9.21875 -2.941406 8.789062 -1.9375 7.9375 -1.125 C 7.082031 -0.3125 6.015625 0.09375 4.734375 0.09375 C 3.460938 0.09375 2.398438 -0.304688 1.546875 -1.109375 C 0.703125 -1.921875 0.28125 -2.929688 0.28125 -4.140625 C 0.28125 -5.347656 0.703125 -6.347656 1.546875 -7.140625 C 2.398438 -7.941406 3.46875 -8.34375 4.75 -8.34375 Z M 4.765625 -6.578125 C 4.117188 -6.578125 3.566406 -6.34375 3.109375 -5.875 C 2.660156 -5.40625 2.4375 -4.820312 2.4375 -4.125 C 2.4375 -3.4375 2.664062 -2.851562 3.125 -2.375 C 3.582031 -1.90625 4.128906 -1.671875 4.765625 -1.671875 C 5.410156 -1.671875 5.953125 -1.90625 6.390625 -2.375 C 6.835938 -2.851562 7.0625 -3.4375 7.0625 -4.125 C 7.0625 -4.820312 6.835938 -5.40625 6.390625 -5.875 C 5.953125 -6.34375 5.410156 -6.578125 4.765625 -6.578125 Z M 4.765625 -6.578125 "/></g></g><g style="fill:#1a6d12;fill-opacity:1;"><g transform="translate(153.119521, 102.333944)"><path style="stroke:none" d="M 9.90625 0 L 8.0625 0 L 8.046875 -5.375 L 6.0625 -0.828125 L 4.6875 -0.828125 L 2.703125 -5.375 L 2.703125 0 L 0.828125 0 L 0.828125 -8.28125 L 3.125 -8.28125 L 5.375 -3.359375 L 7.625 -8.28125 L 9.90625 -8.28125 Z M 9.90625 0 "/></g></g><g style="fill:#1a6d12;fill-opacity:1;"><g transform="translate(166.972976, 102.333944)"><path style="stroke:none" d="M 6.171875 -10.328125 L 4.625 -8.984375 L 3.078125 -8.984375 L 4.328125 -10.96875 Z M 7.296875 -6.609375 L 2.921875 -6.609375 L 2.921875 -4.96875 L 6.875 -4.96875 L 6.875 -3.3125 L 2.921875 -3.3125 L 2.921875 -1.65625 L 7.4375 -1.65625 L 7.4375 0 L 0.828125 0 L 0.828125 -8.265625 L 7.296875 -8.265625 Z M 7.296875 -6.609375 "/></g></g><g style="fill:#1a6d12;fill-opacity:1;"><g transform="translate(178.042163, 102.333944)"><path style="stroke:none" d="M 5.8125 0 L 4.578125 -2.328125 L 2.921875 -2.328125 L 2.921875 0 L 0.828125 0 L 0.828125 -8.265625 L 4.53125 -8.265625 C 5.625 -8.265625 6.46875 -8.015625 7.0625 -7.515625 C 7.664062 -7.015625 7.96875 -6.304688 7.96875 -5.390625 C 7.96875 -4.109375 7.46875 -3.222656 6.46875 -2.734375 L 8.203125 0 Z M 2.921875 -3.984375 L 4.53125 -3.984375 C 4.976562 -3.984375 5.328125 -4.097656 5.578125 -4.328125 C 5.835938 -4.554688 5.96875 -4.882812 5.96875 -5.3125 C 5.96875 -5.738281 5.835938 -6.0625 5.578125 -6.28125 C 5.328125 -6.5 4.976562 -6.609375 4.53125 -6.609375 L 2.921875 -6.609375 Z M 2.921875 -3.984375 "/></g></g><g style="fill:#1a6d12;fill-opacity:1;"><g transform="translate(189.701232, 102.333944)"><path style="stroke:none" d="M 4.703125 -8.34375 C 5.316406 -8.34375 5.921875 -8.210938 6.515625 -7.953125 C 7.109375 -7.703125 7.613281 -7.367188 8.03125 -6.953125 L 6.8125 -5.5 C 6.550781 -5.832031 6.234375 -6.09375 5.859375 -6.28125 C 5.484375 -6.476562 5.109375 -6.578125 4.734375 -6.578125 C 4.078125 -6.578125 3.53125 -6.347656 3.09375 -5.890625 C 2.65625 -5.429688 2.4375 -4.863281 2.4375 -4.1875 C 2.4375 -3.488281 2.65625 -2.90625 3.09375 -2.4375 C 3.53125 -1.976562 4.078125 -1.75 4.734375 -1.75 C 5.078125 -1.75 5.4375 -1.832031 5.8125 -2 C 6.1875 -2.175781 6.519531 -2.414062 6.8125 -2.71875 L 8.046875 -1.421875 C 7.597656 -0.960938 7.066406 -0.59375 6.453125 -0.3125 C 5.847656 -0.0390625 5.238281 0.09375 4.625 0.09375 C 3.382812 0.09375 2.347656 -0.3125 1.515625 -1.125 C 0.691406 -1.9375 0.28125 -2.945312 0.28125 -4.15625 C 0.28125 -5.34375 0.703125 -6.335938 1.546875 -7.140625 C 2.390625 -7.941406 3.441406 -8.34375 4.703125 -8.34375 Z M 4.703125 -8.34375 "/></g></g><g style="fill:#1a6d12;fill-opacity:1;"><g transform="translate(200.982774, 102.333944)"><path style="stroke:none" d="M 2.921875 0 L 0.828125 0 L 0.828125 -8.265625 L 2.921875 -8.265625 Z M 2.921875 0 "/></g></g><g style="fill:#1a6d12;fill-opacity:1;"><g transform="translate(207.851961, 102.333944)"><path style="stroke:none" d="M 4.75 -8.34375 C 6.03125 -8.34375 7.09375 -7.941406 7.9375 -7.140625 C 8.789062 -6.335938 9.21875 -5.335938 9.21875 -4.140625 C 9.21875 -2.941406 8.789062 -1.9375 7.9375 -1.125 C 7.082031 -0.3125 6.015625 0.09375 4.734375 0.09375 C 3.460938 0.09375 2.398438 -0.304688 1.546875 -1.109375 C 0.703125 -1.921875 0.28125 -2.929688 0.28125 -4.140625 C 0.28125 -5.347656 0.703125 -6.347656 1.546875 -7.140625 C 2.398438 -7.941406 3.46875 -8.34375 4.75 -8.34375 Z M 4.765625 -6.578125 C 4.117188 -6.578125 3.566406 -6.34375 3.109375 -5.875 C 2.660156 -5.40625 2.4375 -4.820312 2.4375 -4.125 C 2.4375 -3.4375 2.664062 -2.851562 3.125 -2.375 C 3.582031 -1.90625 4.128906 -1.671875 4.765625 -1.671875 C 5.410156 -1.671875 5.953125 -1.90625 6.390625 -2.375 C 6.835938 -2.851562 7.0625 -3.4375 7.0625 -4.125 C 7.0625 -4.820312 6.835938 -5.40625 6.390625 -5.875 C 5.953125 -6.34375 5.410156 -6.578125 4.765625 -6.578125 Z M 4.765625 -6.578125 "/></g></g><g style="fill:#1a6d12;fill-opacity:1;"><g transform="translate(220.466656, 102.333944)"><path style="stroke:none" d=""/></g></g><g style="fill:#1a6d12;fill-opacity:1;"><g transform="translate(226.321237, 102.333944)"><path style="stroke:none" d="M 7.296875 -6.609375 L 2.921875 -6.609375 L 2.921875 -4.96875 L 6.875 -4.96875 L 6.875 -3.3125 L 2.921875 -3.3125 L 2.921875 -1.65625 L 7.4375 -1.65625 L 7.4375 0 L 0.828125 0 L 0.828125 -8.265625 L 7.296875 -8.265625 Z M 7.296875 -6.609375 "/></g></g><g style="fill:#1a6d12;fill-opacity:1;"><g transform="translate(237.390424, 102.333944)"><path style="stroke:none" d=""/></g></g><g style="fill:#1a6d12;fill-opacity:1;"><g transform="translate(243.245004, 102.333944)"><path style="stroke:none" d="M 7.140625 -6.578125 L 4.65625 -6.578125 L 4.65625 0 L 2.546875 0 L 2.546875 -6.578125 L 0.078125 -6.578125 L 0.078125 -8.28125 L 7.140625 -8.28125 Z M 7.140625 -6.578125 "/></g></g><g style="fill:#1a6d12;fill-opacity:1;"><g transform="translate(253.570935, 102.333944)"><path style="stroke:none" d="M 5.8125 0 L 4.578125 -2.328125 L 2.921875 -2.328125 L 2.921875 0 L 0.828125 0 L 0.828125 -8.265625 L 4.53125 -8.265625 C 5.625 -8.265625 6.46875 -8.015625 7.0625 -7.515625 C 7.664062 -7.015625 7.96875 -6.304688 7.96875 -5.390625 C 7.96875 -4.109375 7.46875 -3.222656 6.46875 -2.734375 L 8.203125 0 Z M 2.921875 -3.984375 L 4.53125 -3.984375 C 4.976562 -3.984375 5.328125 -4.097656 5.578125 -4.328125 C 5.835938 -4.554688 5.96875 -4.882812 5.96875 -5.3125 C 5.96875 -5.738281 5.835938 -6.0625 5.578125 -6.28125 C 5.328125 -6.5 4.976562 -6.609375 4.53125 -6.609375 L 2.921875 -6.609375 Z M 2.921875 -3.984375 "/></g></g><g style="fill:#1a6d12;fill-opacity:1;"><g transform="translate(265.230005, 102.333944)"><path style="stroke:none" d="M 6.3125 -1.53125 L 2.703125 -1.53125 L 2.109375 0 L -0.0625 0 L 3.515625 -8.265625 L 5.671875 -8.265625 L 9.15625 0 L 6.90625 0 Z M 5.703125 -3.125 L 4.53125 -6.171875 L 3.3125 -3.125 Z M 5.703125 -3.125 "/></g></g><g style="fill:#1a6d12;fill-opacity:1;"><g transform="translate(277.431775, 102.333944)"><path style="stroke:none" d="M 8.453125 0 L 6.609375 0 L 2.796875 -5.09375 L 2.796875 0 L 0.828125 0 L 0.828125 -8.265625 L 2.6875 -8.265625 L 6.5 -3.171875 L 6.5 -8.265625 L 8.453125 -8.265625 Z M 8.453125 0 "/></g></g><g style="fill:#1a6d12;fill-opacity:1;"><g transform="translate(289.822301, 102.333944)"><path style="stroke:none" d="M 4 -8.359375 C 5.238281 -8.359375 6.328125 -8.050781 7.265625 -7.4375 L 6.46875 -5.796875 C 6.039062 -6.046875 5.578125 -6.25 5.078125 -6.40625 C 4.578125 -6.570312 4.160156 -6.65625 3.828125 -6.65625 C 3.222656 -6.65625 2.921875 -6.457031 2.921875 -6.0625 C 2.921875 -5.800781 3.066406 -5.59375 3.359375 -5.4375 C 3.660156 -5.28125 4.023438 -5.144531 4.453125 -5.03125 C 4.890625 -4.914062 5.320312 -4.773438 5.75 -4.609375 C 6.175781 -4.453125 6.535156 -4.191406 6.828125 -3.828125 C 7.128906 -3.460938 7.28125 -3.003906 7.28125 -2.453125 C 7.28125 -1.660156 6.96875 -1.039062 6.34375 -0.59375 C 5.726562 -0.144531 4.941406 0.078125 3.984375 0.078125 C 3.296875 0.078125 2.613281 -0.0390625 1.9375 -0.28125 C 1.269531 -0.519531 0.691406 -0.84375 0.203125 -1.25 L 1.015625 -2.875 C 1.429688 -2.507812 1.921875 -2.207031 2.484375 -1.96875 C 3.054688 -1.738281 3.5625 -1.625 4 -1.625 C 4.34375 -1.625 4.609375 -1.6875 4.796875 -1.8125 C 4.984375 -1.9375 5.078125 -2.113281 5.078125 -2.34375 C 5.078125 -2.570312 4.96875 -2.765625 4.75 -2.921875 C 4.53125 -3.078125 4.257812 -3.191406 3.9375 -3.265625 C 3.625 -3.335938 3.273438 -3.4375 2.890625 -3.5625 C 2.515625 -3.6875 2.164062 -3.820312 1.84375 -3.96875 C 1.519531 -4.125 1.25 -4.363281 1.03125 -4.6875 C 0.8125 -5.019531 0.703125 -5.414062 0.703125 -5.875 C 0.703125 -6.625 1.003906 -7.222656 1.609375 -7.671875 C 2.210938 -8.128906 3.007812 -8.359375 4 -8.359375 Z M 4 -8.359375 "/></g></g><g style="fill:#1a6d12;fill-opacity:1;"><g transform="translate(300.537559, 102.333944)"><path style="stroke:none" d="M 0.828125 -8.265625 L 4.421875 -8.265625 C 5.484375 -8.265625 6.304688 -8.015625 6.890625 -7.515625 C 7.472656 -7.015625 7.765625 -6.304688 7.765625 -5.390625 C 7.765625 -4.421875 7.472656 -3.664062 6.890625 -3.125 C 6.304688 -2.59375 5.484375 -2.328125 4.421875 -2.328125 L 2.921875 -2.328125 L 2.921875 0 L 0.828125 0 Z M 2.921875 -6.609375 L 2.921875 -3.984375 L 4.328125 -3.984375 C 4.785156 -3.984375 5.140625 -4.097656 5.390625 -4.328125 C 5.648438 -4.554688 5.78125 -4.882812 5.78125 -5.3125 C 5.78125 -5.738281 5.648438 -6.0625 5.390625 -6.28125 C 5.140625 -6.5 4.785156 -6.609375 4.328125 -6.609375 Z M 2.921875 -6.609375 "/></g></g><g style="fill:#1a6d12;fill-opacity:1;"><g transform="translate(311.677526, 102.333944)"><path style="stroke:none" d="M 4.75 -8.34375 C 6.03125 -8.34375 7.09375 -7.941406 7.9375 -7.140625 C 8.789062 -6.335938 9.21875 -5.335938 9.21875 -4.140625 C 9.21875 -2.941406 8.789062 -1.9375 7.9375 -1.125 C 7.082031 -0.3125 6.015625 0.09375 4.734375 0.09375 C 3.460938 0.09375 2.398438 -0.304688 1.546875 -1.109375 C 0.703125 -1.921875 0.28125 -2.929688 0.28125 -4.140625 C 0.28125 -5.347656 0.703125 -6.347656 1.546875 -7.140625 C 2.398438 -7.941406 3.46875 -8.34375 4.75 -8.34375 Z M 4.765625 -6.578125 C 4.117188 -6.578125 3.566406 -6.34375 3.109375 -5.875 C 2.660156 -5.40625 2.4375 -4.820312 2.4375 -4.125 C 2.4375 -3.4375 2.664062 -2.851562 3.125 -2.375 C 3.582031 -1.90625 4.128906 -1.671875 4.765625 -1.671875 C 5.410156 -1.671875 5.953125 -1.90625 6.390625 -2.375 C 6.835938 -2.851562 7.0625 -3.4375 7.0625 -4.125 C 7.0625 -4.820312 6.835938 -5.40625 6.390625 -5.875 C 5.953125 -6.34375 5.410156 -6.578125 4.765625 -6.578125 Z M 4.765625 -6.578125 "/></g></g><g style="fill:#1a6d12;fill-opacity:1;"><g transform="translate(324.292221, 102.333944)"><path style="stroke:none" d="M 5.8125 0 L 4.578125 -2.328125 L 2.921875 -2.328125 L 2.921875 0 L 0.828125 0 L 0.828125 -8.265625 L 4.53125 -8.265625 C 5.625 -8.265625 6.46875 -8.015625 7.0625 -7.515625 C 7.664062 -7.015625 7.96875 -6.304688 7.96875 -5.390625 C 7.96875 -4.109375 7.46875 -3.222656 6.46875 -2.734375 L 8.203125 0 Z M 2.921875 -3.984375 L 4.53125 -3.984375 C 4.976562 -3.984375 5.328125 -4.097656 5.578125 -4.328125 C 5.835938 -4.554688 5.96875 -4.882812 5.96875 -5.3125 C 5.96875 -5.738281 5.835938 -6.0625 5.578125 -6.28125 C 5.328125 -6.5 4.976562 -6.609375 4.53125 -6.609375 L 2.921875 -6.609375 Z M 2.921875 -3.984375 "/></g></g><g style="fill:#1a6d12;fill-opacity:1;"><g transform="translate(335.95129, 102.333944)"><path style="stroke:none" d="M 7.140625 -6.578125 L 4.65625 -6.578125 L 4.65625 0 L 2.546875 0 L 2.546875 -6.578125 L 0.078125 -6.578125 L 0.078125 -8.28125 L 7.140625 -8.28125 Z M 7.140625 -6.578125 "/></g></g><g style="fill:#1a6d12;fill-opacity:1;"><g transform="translate(346.277221, 102.333944)"><path style="stroke:none" d="M 7.296875 -6.609375 L 2.921875 -6.609375 L 2.921875 -4.96875 L 6.875 -4.96875 L 6.875 -3.3125 L 2.921875 -3.3125 L 2.921875 -1.65625 L 7.4375 -1.65625 L 7.4375 0 L 0.828125 0 L 0.828125 -8.265625 L 7.296875 -8.265625 Z M 7.296875 -6.609375 "/></g></g></g></svg>